<svg width="14" height="10" viewBox="0 0 14 10" fill="none" xmlns="http://www.w3.org/2000/svg">
<path fill-rule="evenodd" clip-rule="evenodd" d="M12.6749 0.995633C12.886 1.21181 12.886 1.5623 12.6749 1.77847L5.61792 9.0047C5.40681 9.22088 5.06453 9.22088 4.85342 9.0047L1.32492 5.39159C1.11381 5.17541 1.11381 4.82492 1.32492 4.60875C1.53603 4.39257 1.87831 4.39257 2.08943 4.60875L5.23567 7.83044L11.9104 0.995633C12.1215 0.779457 12.4638 0.779457 12.6749 0.995633Z" fill="#28906F"/>
<path fill-rule="evenodd" clip-rule="evenodd" d="M12.9134 0.76274C13.251 1.10842 13.251 1.66569 12.9134 2.01137L5.8564 9.2376C5.51451 9.58769 4.95684 9.58769 4.61494 9.2376L1.08644 5.62448C0.748855 5.2788 0.748855 4.72154 1.08644 4.37585C1.42834 4.02576 1.98601 4.02576 2.32791 4.37585L5.23567 7.35335L11.6719 0.76274C12.0138 0.412644 12.5715 0.412644 12.9134 0.76274ZM5.23567 7.83044L2.08943 4.60875C1.87831 4.39257 1.53603 4.39257 1.32492 4.60875C1.11381 4.82492 1.11381 5.17541 1.32492 5.39159L4.85342 9.0047C5.06453 9.22088 5.40681 9.22088 5.61792 9.0047L12.6749 1.77847C12.886 1.5623 12.886 1.21181 12.6749 0.995633C12.4638 0.779457 12.1215 0.779457 11.9104 0.995633L5.23567 7.83044Z" fill="#28906F"/>
</svg>
