<svg width="166" height="52" viewBox="0 0 166 52" fill="none" xmlns="http://www.w3.org/2000/svg">
<g filter="url(#filter0_d_1_780)">
<g clip-path="url(#clip0_1_780)">
<rect width="100" height="61" rx="4.5749" transform="matrix(0.913545 -0.406737 0.659347 0.751838 -2 8)" fill="url(#paint0_linear_1_780)"/>
<g filter="url(#filter1_f_1_780)">
<path d="M70.7745 40.0833C45.416 53.254 19.0643 55.135 15.2688 54.6788L31.5116 73.2L154.539 18.4249L130.368 -9.13653C127.783 3.97126 96.1331 26.9125 70.7745 40.0833Z" fill="url(#paint1_linear_1_780)"/>
</g>
<path d="M15.0294 14.9202C14.6247 15.1004 14.2143 15.2011 13.7982 15.2221C13.3822 15.2432 12.9884 15.1841 12.6168 15.0446C12.2466 14.8987 11.9284 14.674 11.6622 14.3704L11.5624 14.2566L12.546 13.8186L12.6237 13.9072C12.8307 14.1433 13.097 14.2885 13.4225 14.3429C13.7444 14.3931 14.0692 14.3452 14.3971 14.1992C14.7301 14.051 14.9289 13.8716 14.9936 13.661C15.0634 13.4482 15.0114 13.2427 14.8377 13.0446L14.7822 12.9813C14.6639 12.8464 14.5268 12.755 14.3708 12.7072C14.2149 12.6594 14.0511 12.6473 13.8795 12.6709C13.7042 12.6903 13.5295 12.7388 13.3553 12.8164L12.2795 13.2954L11.503 12.41L12.5741 10.8778L12.4854 10.7766L9.76503 11.9878L9.13274 11.2668L12.9443 9.56977L13.8872 10.6449L12.8869 12.0752L12.9757 12.1764L13.26 12.0498C13.5008 11.9426 13.769 11.8788 14.0647 11.8586C14.3655 11.836 14.6641 11.876 14.9606 11.9785C15.2534 12.0768 15.5162 12.2588 15.7492 12.5244L15.8157 12.6003C16.0672 12.887 16.2027 13.1755 16.2222 13.4658C16.238 13.7519 16.144 14.0224 15.9401 14.2773C15.7377 14.5257 15.4341 14.74 15.0294 14.9202ZM21.4707 11.9293L20.6831 11.0312L18.0396 12.2082L17.2187 11.2722L16.8044 7.85117L18.5718 7.06424L21.0344 9.87227L21.9259 9.47539L22.5581 10.1964L21.6667 10.5933L22.4543 11.4913L21.4707 11.9293ZM18.3448 11.0698L20.0508 10.3102L18.043 8.02078L17.9047 8.08237L18.2561 10.9686L18.3448 11.0698ZM25.6115 10.2087C25.1914 10.3958 24.7741 10.4966 24.3595 10.5112C23.95 10.5235 23.5653 10.4544 23.2053 10.3039C22.8454 10.1535 22.5361 9.93066 22.2772 9.63552L22.2218 9.57227L23.2208 9.12749L23.2707 9.18441C23.4556 9.39522 23.6991 9.53888 24.0013 9.6154C24.3049 9.68542 24.6257 9.64515 24.9639 9.49461C25.302 9.34407 25.496 9.15509 25.5459 8.92769C25.5972 8.69379 25.5175 8.45668 25.3067 8.21635L25.2513 8.15311C25.0442 7.917 24.7874 7.77043 24.481 7.71341C24.1797 7.6541 23.8932 7.6849 23.6217 7.80579C23.4731 7.87194 23.365 7.94354 23.2972 8.02061C23.2295 8.09768 23.187 8.1752 23.1699 8.25316C23.1528 8.33113 23.146 8.40454 23.1493 8.47338L21.9582 9.0037L19.784 6.52454L23.4573 4.88909L24.1007 5.62272L21.4111 6.82022L22.3595 7.9017L22.4978 7.84011C22.501 7.76249 22.5239 7.67899 22.5666 7.58962C22.6094 7.50025 22.6851 7.40791 22.7938 7.31259C22.9026 7.21727 23.0517 7.12742 23.2413 7.04302C23.5589 6.9016 23.8964 6.82754 24.2539 6.82084C24.6113 6.81413 24.9611 6.88408 25.3034 7.03068C25.6471 7.17078 25.9557 7.39683 26.2294 7.70884L26.2959 7.78473C26.5695 8.09673 26.7242 8.40307 26.7599 8.70374C26.8008 9.00213 26.7255 9.28185 26.5342 9.54292C26.3392 9.79977 26.0316 10.0217 25.6115 10.2087ZM30.3492 7.9763L29.5616 7.07824L26.918 8.25521L26.0972 7.3192L25.6829 3.89821L27.4503 3.11128L29.9129 5.91932L30.8043 5.52243L31.4366 6.24341L30.5452 6.6403L31.3328 7.53836L30.3492 7.9763ZM27.2233 7.11682L28.9293 6.35726L26.9215 4.06783L26.7832 4.12941L27.1345 7.01563L27.2233 7.11682ZM36.2952 5.45207C35.6599 5.73491 35.0244 5.81852 34.3888 5.70288C33.7494 5.58303 33.1727 5.23007 32.6588 4.64401L31.6826 3.53092C31.1834 2.96172 30.9966 2.44402 31.122 1.97781C31.2437 1.50739 31.6222 1.13075 32.2574 0.847915C32.8978 0.562796 33.5388 0.485518 34.1805 0.616082C34.8235 0.740149 35.3946 1.08678 35.8938 1.65598L36.87 2.76907C37.3839 3.35513 37.5764 3.87916 37.4473 4.34115C37.3196 4.79665 36.9356 5.16696 36.2952 5.45207ZM35.6629 4.73109C36.0471 4.56002 36.2531 4.34814 36.2808 4.09544C36.3136 3.84045 36.1895 3.55275 35.9085 3.23231L34.8769 2.05597C34.5922 1.73132 34.2753 1.5324 33.9261 1.4592C33.5784 1.37951 33.233 1.41607 32.8897 1.5689C32.5362 1.72628 32.3354 1.93589 32.2872 2.19771C32.2441 2.45725 32.3594 2.74303 32.633 3.05503L33.6646 4.23137C33.9567 4.56445 34.2689 4.77426 34.6013 4.8608C34.935 4.94084 35.2889 4.8976 35.6629 4.73109ZM40.9708 3.37035C40.3355 3.65319 39.7001 3.73679 39.0644 3.62115C38.425 3.5013 37.8484 3.14835 37.3344 2.56229L36.3583 1.44919C35.8591 0.879997 35.6722 0.362294 35.7976 -0.103916C35.9193 -0.574342 36.2978 -0.950974 36.9331 -1.23381C37.5734 -1.51893 38.2145 -1.59621 38.8561 -1.46565C39.4992 -1.34158 40.0703 -0.994948 40.5695 -0.425752L41.5456 0.687341C42.0596 1.2734 42.252 1.79743 42.1229 2.25942C41.9952 2.71492 41.6112 3.08523 40.9708 3.37035ZM40.3385 2.64937C40.7228 2.47829 40.9287 2.26641 40.9564 2.01371C40.9893 1.75873 40.8652 1.47102 40.5842 1.15058L39.5525 -0.0257554C39.2678 -0.350408 38.9509 -0.549332 38.6018 -0.622528C38.2541 -0.702221 37.9086 -0.665656 37.5653 -0.512832C37.2118 -0.355446 37.011 -0.145841 36.9628 0.115983C36.9197 0.375526 37.035 0.6613 37.3086 0.973303L38.3402 2.14964C38.6323 2.48273 38.9446 2.69254 39.2769 2.77907C39.6107 2.85911 39.9645 2.81588 40.3385 2.64937ZM45.6464 1.28862C45.0112 1.57146 44.3757 1.65506 43.74 1.53943C43.1007 1.41958 42.524 1.06662 42.0101 0.480559L41.0339 -0.632534C40.5347 -1.20173 40.3478 -1.71943 40.4732 -2.18564C40.5949 -2.65607 40.9734 -3.0327 41.6087 -3.31554C42.2491 -3.60066 42.8901 -3.67794 43.5317 -3.54737C44.1748 -3.42331 44.7459 -3.07667 45.2451 -2.50748L46.2212 -1.39439C46.7352 -0.808325 46.9276 -0.284298 46.7985 0.177696C46.6709 0.633192 46.2868 1.0035 45.6464 1.28862ZM45.0142 0.567639C45.3984 0.396567 45.6044 0.184681 45.6321 -0.068019C45.6649 -0.323 45.5408 -0.610709 45.2598 -0.931145L44.2282 -2.10748C43.9435 -2.43213 43.6265 -2.63106 43.2774 -2.70425C42.9297 -2.78395 42.5842 -2.74738 42.241 -2.59456C41.8875 -2.43717 41.6866 -2.22757 41.6384 -1.96574C41.5954 -1.7062 41.7106 -1.42043 41.9842 -1.10842L43.0159 0.0679134C43.308 0.400998 43.6202 0.610809 43.9525 0.697345C44.2863 0.777384 44.6402 0.734148 45.0142 0.567639ZM48.925 -1.50775L48.3593 -2.15284L49.0663 -2.46761L48.7668 -2.80913L48.0598 -2.49436L47.4941 -3.13945L48.201 -3.45422L46.5149 -5.37683L48.7589 -6.37589C49.0919 -6.52415 49.4283 -6.60357 49.768 -6.61415C50.1129 -6.62701 50.4403 -6.5705 50.7501 -6.44464C51.0563 -6.32299 51.3203 -6.13568 51.5421 -5.8827L51.6198 -5.79416C51.8416 -5.54118 51.9596 -5.28886 51.9737 -5.0372C51.993 -4.78782 51.9189 -4.55551 51.7515 -4.34027C51.5804 -4.12925 51.3335 -3.95189 51.0107 -3.80819L49.7811 -3.26076L50.0807 -2.91924L51.7866 -3.6788L52.3524 -3.03371L50.6464 -2.27415L51.4118 -1.40139L50.3974 -0.949758L49.632 -1.82252L48.925 -1.50775ZM49.2154 -3.90585L50.3451 -4.4088C50.5756 -4.51144 50.7201 -4.64318 50.7785 -4.80402C50.8332 -4.96908 50.7866 -5.13593 50.6387 -5.30458L50.5832 -5.36783C50.4316 -5.5407 50.2416 -5.64368 50.0131 -5.67679C49.7897 -5.71218 49.5602 -5.67741 49.3245 -5.57249L48.1949 -5.06954L49.2154 -3.90585Z" fill="white"/>
<path d="M34.9915 55.1352L25.7651 44.6145L35.8809 40.1107L45.1073 50.6314L42.4037 51.835L34.8055 43.171L30.0968 45.2675L37.695 53.9315L34.9915 55.1352ZM54.5916 39.0739C55.3066 39.8893 55.8317 40.6867 56.1668 41.4663C56.5053 42.2307 56.6349 42.9652 56.5557 43.6697C56.4885 44.369 56.1789 45.019 55.6271 45.6198C55.0872 46.2153 54.298 46.7443 53.2596 47.2066C52.2211 47.6689 51.202 47.9451 50.2022 48.0351C49.2057 48.11 48.25 48.0233 47.3352 47.775C46.4237 47.5116 45.5497 47.1016 44.7133 46.5453C43.8887 45.9836 43.119 45.2951 42.4039 44.4797C41.4477 43.3894 40.8312 42.3458 40.5545 41.3489C40.2897 40.3468 40.4111 39.4254 40.9186 38.5848C41.4295 37.7291 42.3832 36.9903 43.7797 36.3686C45.1643 35.7521 46.5023 35.4705 47.7938 35.5238C49.0766 35.5673 50.2904 35.901 51.4352 36.5251C52.5832 37.1339 53.6353 37.9836 54.5916 39.0739ZM45.2636 43.227C45.9097 43.9638 46.5787 44.5469 47.2707 44.9764C47.9627 45.4058 48.6723 45.6567 49.3996 45.729C50.1269 45.8013 50.8665 45.6701 51.6184 45.3353C52.3943 44.9899 52.89 44.5711 53.1057 44.079C53.3333 43.5815 53.322 43.0197 53.0716 42.3936C52.8332 41.7622 52.3909 41.0781 51.7448 40.3414C50.7714 39.2314 49.7583 38.4736 48.7057 38.0681C47.653 37.6626 46.5537 37.715 45.4079 38.2251C44.644 38.5653 44.1482 38.984 43.9206 39.4815C43.693 39.9789 43.6984 40.5434 43.9368 41.1748C44.1752 41.8062 44.6175 42.4903 45.2636 43.227ZM59.9978 29.3732L61.6131 31.215L56.2419 33.6064L63.853 42.2852L61.1495 43.4889L51.9231 32.9682L59.9978 29.3732ZM77.0345 36.4164L73.9068 34.326L69.2517 36.3986L70.5175 39.318L67.5991 40.6173L62.8458 28.0437L66.158 26.569L79.9529 35.1171L77.0345 36.4164ZM68.545 30.7102C68.3389 30.5698 68.0761 30.3931 67.7566 30.1802C67.4372 29.9673 67.1134 29.7495 66.7853 29.5268C66.4572 29.3041 66.1772 29.1078 65.9452 28.9379C66.0578 29.161 66.1896 29.4437 66.3407 29.7863C66.495 30.1136 66.6407 30.4312 66.7778 30.739C66.9183 31.0316 67.012 31.2425 67.059 31.3718L68.291 34.2243L71.6211 32.7417L68.545 30.7102ZM96.9336 27.5568L80.8558 34.7151L71.6294 24.1944L74.3329 22.9908L81.9311 31.6548L85.9058 29.8852L78.3076 21.2211L81.029 20.0095L88.6272 28.6735L92.6019 26.9039L85.0037 18.2398L87.7072 17.0362L96.9336 27.5568ZM106.801 23.1636L99.4424 26.4398L90.216 15.9192L97.5745 12.6429L99.1768 14.47L94.5218 16.5426L96.5506 18.856L100.883 16.9269L102.486 18.754L98.1529 20.6831L100.531 23.3943L105.186 21.3217L106.801 23.1636ZM119.219 17.6349L116.515 18.8385L112.535 14.3002L107.468 16.5561L111.448 21.0944L108.745 22.2981L99.5183 11.7775L102.222 10.5738L105.84 14.6995L110.907 12.4436L107.289 8.3179L109.992 7.11422L119.219 17.6349ZM128.694 6.08117C129.41 6.8965 129.935 7.69395 130.27 8.47353C130.608 9.23796 130.738 9.97245 130.659 10.677C130.591 11.3762 130.282 12.0262 129.73 12.6271C129.19 13.2226 128.401 13.7515 127.362 14.2138C126.324 14.6762 125.305 14.9524 124.305 15.0424C123.309 15.1173 122.353 15.0306 121.438 14.7822C120.527 14.5188 119.653 14.1089 118.816 13.5525C117.992 12.9908 117.222 12.3023 116.507 11.487C115.551 10.3966 114.934 9.353 114.657 8.35619C114.393 7.35406 114.514 6.43269 115.022 5.59207C115.532 4.73632 116.486 3.99756 117.883 3.3758C119.267 2.75934 120.605 2.47777 121.897 2.53107C123.18 2.57454 124.393 2.90829 125.538 3.5323C126.686 4.14117 127.738 4.9908 128.694 6.08117ZM119.367 10.2343C120.013 10.971 120.682 11.5541 121.374 11.9836C122.066 12.4131 122.775 12.664 123.503 12.7363C124.23 12.8086 124.969 12.6773 125.721 12.3425C126.497 11.9971 126.993 11.5783 127.209 11.0862C127.436 10.5887 127.425 10.027 127.175 9.40087C126.936 8.76944 126.494 8.08536 125.848 7.34862C124.874 6.2386 123.861 5.48085 122.809 5.07536C121.756 4.66987 120.657 4.72221 119.511 5.23238C118.747 5.57249 118.251 5.99127 118.024 6.48871C117.796 6.98616 117.801 7.55059 118.04 8.18201C118.278 8.81344 118.72 9.49752 119.367 10.2343Z" fill="white"/>
</g>
<rect x="0.224869" y="0.0493376" width="99.7141" height="60.7141" rx="4.43193" transform="matrix(0.913545 -0.406737 0.659347 0.751838 -2.01309 8.10371)" stroke="url(#paint2_radial_1_780)" stroke-width="0.285931"/>
<rect x="0.224869" y="0.0493376" width="99.7141" height="60.7141" rx="4.43193" transform="matrix(0.913545 -0.406737 0.659347 0.751838 -2.01309 8.10371)" stroke="url(#paint3_radial_1_780)" stroke-width="0.285931"/>
<rect x="0.224869" y="0.0493376" width="99.7141" height="60.7141" rx="4.43193" transform="matrix(0.913545 -0.406737 0.659347 0.751838 -2.01309 8.10371)" stroke="url(#paint4_radial_1_780)" stroke-width="0.285931"/>
</g>
<defs>
<filter id="filter0_d_1_780" x="-46.3893" y="-61.7003" width="211.575" height="166.536" filterUnits="userSpaceOnUse" color-interpolation-filters="sRGB">
<feFlood flood-opacity="0" result="BackgroundImageFix"/>
<feColorMatrix in="SourceAlpha" type="matrix" values="0 0 0 0 0 0 0 0 0 0 0 0 0 0 0 0 0 0 127 0" result="hardAlpha"/>
<feOffset dx="-4.38933" dy="10.9733"/>
<feGaussianBlur stdDeviation="20"/>
<feComposite in2="hardAlpha" operator="out"/>
<feColorMatrix type="matrix" values="0 0 0 0 0.737549 0 0 0 0 0.651872 0 0 0 0 0.223485 0 0 0 1 0"/>
<feBlend mode="normal" in2="BackgroundImageFix" result="effect1_dropShadow_1_780"/>
<feBlend mode="normal" in="SourceGraphic" in2="effect1_dropShadow_1_780" result="shape"/>
</filter>
<filter id="filter1_f_1_780" x="-5.31799" y="-29.7236" width="180.444" height="123.511" filterUnits="userSpaceOnUse" color-interpolation-filters="sRGB">
<feFlood flood-opacity="0" result="BackgroundImageFix"/>
<feBlend mode="normal" in="SourceGraphic" in2="BackgroundImageFix" result="shape"/>
<feGaussianBlur stdDeviation="10.2935" result="effect1_foregroundBlur_1_780"/>
</filter>
<linearGradient id="paint0_linear_1_780" x1="50" y1="0" x2="50" y2="61" gradientUnits="userSpaceOnUse">
<stop stop-color="#FBEE88"/>
<stop offset="1" stop-color="#E0B330"/>
</linearGradient>
<linearGradient id="paint1_linear_1_780" x1="68.8543" y1="18.2511" x2="83.0941" y2="50.234" gradientUnits="userSpaceOnUse">
<stop stop-color="#E0B330"/>
<stop offset="0.511012" stop-color="#FBEE88"/>
<stop offset="1" stop-color="#E0B330"/>
</linearGradient>
<radialGradient id="paint2_radial_1_780" cx="0" cy="0" r="1" gradientUnits="userSpaceOnUse" gradientTransform="translate(121.296 23.0523) rotate(174.417) scale(164.05 41.6263)">
<stop stop-color="white"/>
<stop offset="1" stop-color="white" stop-opacity="0"/>
</radialGradient>
<radialGradient id="paint3_radial_1_780" cx="0" cy="0" r="1" gradientUnits="userSpaceOnUse" gradientTransform="translate(-8.95062 -35.4651) rotate(30.6728) scale(96.1709 58.1385)">
<stop stop-color="white"/>
<stop offset="1" stop-color="white" stop-opacity="0"/>
</radialGradient>
<radialGradient id="paint4_radial_1_780" cx="0" cy="0" r="1" gradientUnits="userSpaceOnUse" gradientTransform="translate(-40.1235 82.3973) rotate(-5.34645) scale(123.066 31.0924)">
<stop stop-color="white"/>
<stop offset="1" stop-color="white" stop-opacity="0"/>
</radialGradient>
<clipPath id="clip0_1_780">
<rect width="100" height="61" rx="4.5749" transform="matrix(0.913545 -0.406737 0.659347 0.751838 -2 8)" fill="white"/>
</clipPath>
</defs>
</svg>
