<svg width="110" height="72" viewBox="0 0 110 72" fill="none" xmlns="http://www.w3.org/2000/svg">
<g filter="url(#filter0_d_1_507)">
<g clip-path="url(#clip0_1_507)">
<rect width="90.104" height="54.8909" rx="4.14271" transform="matrix(0.913545 -0.406737 0.659347 0.751838 -28.3848 23.7998)" fill="#5B82FF"/>
<path d="M-12.5121 30.621C-12.8786 30.7842 -13.2502 30.8753 -13.627 30.8944C-14.0037 30.9135 -14.3603 30.8599 -14.6968 30.7337C-15.032 30.6016 -15.3201 30.398 -15.5612 30.1232L-15.6516 30.0201L-14.7609 29.6235L-14.6906 29.7037C-14.5031 29.9175 -14.2619 30.049 -13.9672 30.0983C-13.6757 30.1437 -13.3816 30.1003 -13.0847 29.9681C-12.7831 29.8339 -12.6031 29.6714 -12.5445 29.4808C-12.4813 29.2881 -12.5284 29.102 -12.6857 28.9225L-12.736 28.8653C-12.8431 28.7431 -12.9673 28.6604 -13.1085 28.6171C-13.2497 28.5737 -13.3979 28.5628 -13.5533 28.5842C-13.7121 28.6018 -13.8703 28.6457 -14.028 28.7159L-15.0023 29.1497L-15.7054 28.3479L-14.7354 26.9605L-14.8158 26.8688L-17.2792 27.9656L-17.8517 27.3127L-14.4002 25.776L-13.5464 26.7496L-14.4522 28.0447L-14.3718 28.1364L-14.1143 28.0217C-13.8963 27.9247 -13.6534 27.8669 -13.3857 27.8486C-13.1133 27.8282 -12.8429 27.8644 -12.5744 27.9572C-12.3093 28.0462 -12.0713 28.211 -11.8603 28.4515L-11.8 28.5203C-11.5724 28.7799 -11.4497 29.0411 -11.432 29.304C-11.4177 29.5631 -11.5028 29.808 -11.6874 30.0388C-11.8707 30.2638 -12.1456 30.4578 -12.5121 30.621ZM-6.67933 27.9126L-7.39252 27.0994L-9.78631 28.1652L-10.5296 27.3176L-10.9048 24.2198L-9.30431 23.5072L-7.07436 26.0499L-6.26715 25.6905L-5.69459 26.3434L-6.5018 26.7028L-5.78862 27.516L-6.67933 27.9126ZM-9.5099 27.1343L-7.96507 26.4465L-9.78318 24.3734L-9.90844 24.4291L-9.59026 27.0427L-9.5099 27.1343ZM-2.92966 26.3546C-3.31007 26.524 -3.688 26.6153 -4.06345 26.6285C-4.43426 26.6396 -4.78262 26.5771 -5.10853 26.4408C-5.43444 26.3046 -5.71458 26.1028 -5.94896 25.8356L-5.99919 25.7783L-5.09455 25.3755L-5.04935 25.4271C-4.88194 25.618 -4.66142 25.748 -4.38779 25.8173C-4.11287 25.8807 -3.82232 25.8443 -3.51613 25.708C-3.20995 25.5716 -3.03427 25.4005 -2.98909 25.1946C-2.94262 24.9828 -3.01481 24.7681 -3.20566 24.5504L-3.25589 24.4932C-3.44339 24.2794 -3.67589 24.1467 -3.95339 24.095C-4.22626 24.0413 -4.48562 24.0692 -4.7315 24.1787C-4.86603 24.2386 -4.96398 24.3034 -5.02534 24.3732C-5.08669 24.443 -5.12512 24.5132 -5.14061 24.5838C-5.1561 24.6544 -5.16231 24.7209 -5.15924 24.7832L-6.23784 25.2634L-8.20663 23.0185L-4.88037 21.5375L-4.29777 22.2018L-6.73332 23.2862L-5.87448 24.2655L-5.74923 24.2098C-5.74636 24.1395 -5.72559 24.0639 -5.6869 23.9829C-5.64822 23.902 -5.57964 23.8184 -5.48117 23.7321C-5.3827 23.6458 -5.24764 23.5644 -5.07599 23.488C-4.78836 23.3599 -4.48272 23.2928 -4.15907 23.2868C-3.83542 23.2807 -3.51863 23.344 -3.20869 23.4768C-2.89747 23.6037 -2.61797 23.8084 -2.37019 24.0909L-2.30992 24.1596C-2.06215 24.4421 -1.92209 24.7195 -1.88973 24.9918C-1.85274 25.262 -1.92087 25.5153 -2.09413 25.7517C-2.27074 25.9843 -2.54925 26.1853 -2.92966 26.3546ZM1.36041 24.3331L0.647229 23.5199L-1.74656 24.5856L-2.48988 23.7381L-2.86506 20.6402L-1.26456 19.9277L0.965388 22.4704L1.7726 22.111L2.34515 22.7639L1.53794 23.1233L2.25113 23.9365L1.36041 24.3331ZM-1.47016 23.5548L0.0746739 22.867L-1.74344 20.7938L-1.8687 20.8496L-1.55052 23.4632L-1.47016 23.5548ZM6.74473 22.0473C6.16947 22.3034 5.59404 22.3791 5.01842 22.2744C4.43945 22.1659 3.91727 21.8463 3.45186 21.3156L2.56791 20.3076C2.11589 19.7922 1.94666 19.3234 2.06022 18.9013C2.17043 18.4753 2.51316 18.1342 3.08841 17.8781C3.6683 17.6199 4.24876 17.5499 4.82978 17.6682C5.4121 17.7805 5.92926 18.0944 6.38128 18.6098L7.26522 19.6178C7.73063 20.1485 7.90489 20.623 7.78798 21.0413C7.67237 21.4538 7.32462 21.7891 6.74473 22.0473ZM6.17217 21.3944C6.52011 21.2395 6.70662 21.0477 6.73171 20.8188C6.76144 20.5879 6.64907 20.3274 6.3946 20.0372L5.46043 18.972C5.20261 18.6781 4.91563 18.4979 4.59948 18.4316C4.28463 18.3595 3.97179 18.3926 3.66096 18.531C3.34086 18.6735 3.15899 18.8633 3.11534 19.1004C3.07634 19.3354 3.18072 19.5942 3.42849 19.8767L4.36266 20.9419C4.62717 21.2435 4.9099 21.4335 5.21084 21.5119C5.51307 21.5844 5.83351 21.5452 6.17217 21.3944ZM10.9787 20.1622C10.4034 20.4184 9.82797 20.4941 9.25235 20.3894C8.67339 20.2808 8.1512 19.9612 7.68579 19.4305L6.80185 18.4226C6.34983 17.9072 6.1806 17.4384 6.29415 17.0162C6.40436 16.5902 6.74709 16.2491 7.32234 15.993C7.90224 15.7348 8.48269 15.6649 9.06372 15.7831C9.64603 15.8954 10.1632 16.2093 10.6152 16.7248L11.4992 17.7327C11.9646 18.2634 12.1388 18.7379 12.0219 19.1563C11.9063 19.5687 11.5586 19.9041 10.9787 20.1622ZM10.4061 19.5094C10.754 19.3545 10.9406 19.1626 10.9656 18.9338C10.9954 18.7029 10.883 18.4423 10.6285 18.1522L9.69437 17.087C9.43655 16.793 9.14957 16.6128 8.83342 16.5466C8.51856 16.4744 8.20572 16.5075 7.8949 16.6459C7.5748 16.7884 7.39293 16.9782 7.34928 17.2153C7.31027 17.4503 7.41465 17.7091 7.66243 17.9916L8.59659 19.0569C8.86111 19.3585 9.14383 19.5485 9.44477 19.6268C9.747 19.6993 10.0674 19.6602 10.4061 19.5094ZM15.2126 18.2772C14.6373 18.5333 14.0619 18.609 13.4863 18.5043C12.9073 18.3958 12.3851 18.0761 11.9197 17.5454L11.0358 16.5375C10.5838 16.0221 10.4145 15.5533 10.5281 15.1311C10.6383 14.7051 10.981 14.3641 11.5563 14.108C12.1362 13.8498 12.7166 13.7798 13.2977 13.898C13.88 14.0104 14.3971 14.3243 14.8491 14.8397L15.7331 15.8476C16.1985 16.3783 16.3728 16.8528 16.2559 17.2712C16.1402 17.6837 15.7925 18.019 15.2126 18.2772ZM14.64 17.6243C14.988 17.4694 15.1745 17.2775 15.1996 17.0487C15.2293 16.8178 15.1169 16.5573 14.8625 16.2671L13.9283 15.2019C13.6705 14.9079 13.3835 14.7278 13.0674 14.6615C12.7525 14.5893 12.4397 14.6224 12.1288 14.7608C11.8087 14.9033 11.6269 15.0932 11.5832 15.3302C11.5442 15.5653 11.6486 15.824 11.8964 16.1066L12.8305 17.1718C13.095 17.4734 13.3778 17.6634 13.6787 17.7418C13.9809 17.8142 14.3014 17.7751 14.64 17.6243ZM18.1814 15.745L17.6692 15.1608L18.3094 14.8758L18.0381 14.5665L17.3979 14.8516L16.8857 14.2674L17.5259 13.9824L15.999 12.2414L18.031 11.3367C18.3325 11.2025 18.6371 11.1305 18.9448 11.121C19.2571 11.1093 19.5536 11.1605 19.8341 11.2745C20.1114 11.3846 20.3504 11.5542 20.5513 11.7833L20.6216 11.8635C20.8225 12.0926 20.9294 12.3211 20.9422 12.5489C20.9596 12.7748 20.8925 12.9851 20.7409 13.18C20.586 13.3711 20.3624 13.5317 20.0701 13.6619L18.9567 14.1576L19.2279 14.4668L20.7727 13.779L21.285 14.3632L19.7402 15.051L20.4333 15.8413L19.5147 16.2503L18.8216 15.4599L18.1814 15.745ZM18.4444 13.5734L19.4673 13.118C19.6761 13.025 19.8069 12.9057 19.8598 12.7601C19.9093 12.6106 19.8671 12.4595 19.7332 12.3068L19.683 12.2495C19.5457 12.093 19.3736 11.9998 19.1667 11.9698C18.9644 11.9377 18.7566 11.9692 18.5432 12.0642L17.5203 12.5197L18.4444 13.5734Z" fill="white"/>
<path d="M5.22705 67.0138L-3.12774 57.487L6.03239 53.4087L14.3872 62.9355L11.9391 64.0254L5.05866 56.1798L0.794737 58.0783L7.67515 65.9238L5.22705 67.0138ZM22.9755 52.4698C23.623 53.2081 24.0985 53.9303 24.402 54.6362C24.7085 55.3284 24.8259 55.9935 24.7542 56.6315C24.6933 57.2647 24.4129 57.8533 23.9132 58.3973C23.4243 58.9366 22.7097 59.4156 21.7693 59.8342C20.829 60.2529 19.9062 60.503 19.0008 60.5845C18.0984 60.6523 17.233 60.5738 16.4047 60.3489C15.5793 60.1104 14.7878 59.7392 14.0304 59.2354C13.2838 58.7267 12.5867 58.1033 11.9392 57.365C11.0733 56.3776 10.5151 55.4326 10.2645 54.5299C10.0248 53.6225 10.1347 52.7881 10.5943 52.0269C11.0569 51.252 11.9205 50.5831 13.185 50.02C14.4388 49.4618 15.6504 49.2068 16.8199 49.2551C17.9816 49.2945 19.0807 49.5967 20.1173 50.1618C21.1569 50.7131 22.1096 51.4825 22.9755 52.4698ZM14.5288 56.2306C15.1138 56.8977 15.7197 57.4258 16.3463 57.8147C16.9729 58.2036 17.6155 58.4308 18.274 58.4962C18.9326 58.5617 19.6023 58.4429 20.2833 58.1397C20.9858 57.8269 21.4347 57.4477 21.63 57.002C21.8362 56.5516 21.8259 56.0429 21.5992 55.4759C21.3833 54.9042 20.9828 54.2847 20.3977 53.6176C19.5162 52.6124 18.5989 51.9262 17.6456 51.559C16.6924 51.1919 15.697 51.2393 14.6594 51.7012C13.9677 52.0092 13.5188 52.3884 13.3126 52.8389C13.1065 53.2893 13.1114 53.8004 13.3273 54.3722C13.5432 54.944 13.9437 55.5634 14.5288 56.2306ZM27.871 43.6855L29.3337 45.3533L24.4699 47.5188L31.362 55.3778L28.9139 56.4677L20.5591 46.941L27.871 43.6855ZM43.2983 50.0634L40.466 48.1704L36.2508 50.0472L37.3969 52.6908L34.7543 53.8674L30.45 42.4816L33.4493 41.1462L45.941 48.8868L43.2983 50.0634ZM35.6108 44.8962C35.4242 44.7691 35.1862 44.6091 34.8969 44.4163C34.6076 44.2235 34.3144 44.0263 34.0173 43.8246C33.7202 43.623 33.4667 43.4452 33.2566 43.2914C33.3586 43.4933 33.4779 43.7494 33.6147 44.0596C33.7544 44.356 33.8864 44.6436 34.0106 44.9223C34.1377 45.1872 34.2226 45.3782 34.2652 45.4953L35.3808 48.0784L38.3963 46.7358L35.6108 44.8962ZM61.3175 42.0407L46.7586 48.5228L38.4038 38.996L40.8519 37.906L47.7323 45.7516L51.3315 44.1491L44.4511 36.3036L46.9154 35.2064L53.7958 43.052L57.395 41.4495L50.5146 33.6039L52.9627 32.5139L61.3175 42.0407ZM70.2527 38.0625L63.5893 41.0292L55.2345 31.5025L61.8979 28.5357L63.3489 30.1902L59.1336 32.067L60.9707 34.1618L64.8942 32.415L66.3451 34.0695L62.4217 35.8163L64.5747 38.2714L68.79 36.3947L70.2527 38.0625ZM81.4973 33.0561L79.0492 34.1461L75.4452 30.0365L70.857 32.0793L74.461 36.1889L72.0129 37.2788L63.6581 27.752L66.1062 26.6621L69.3826 30.3981L73.9708 28.3553L70.6944 24.6193L73.1425 23.5293L81.4973 33.0561ZM90.078 22.5939C90.7255 23.3322 91.201 24.0543 91.5045 24.7602C91.811 25.4524 91.9284 26.1175 91.8567 26.7555C91.7958 27.3887 91.5155 27.9773 91.0157 28.5214C90.5268 29.0606 89.8122 29.5396 88.8719 29.9583C87.9315 30.3769 87.0087 30.627 86.1033 30.7085C85.2009 30.7763 84.3356 30.6978 83.5072 30.473C82.6818 30.2344 81.8904 29.8632 81.1329 29.3594C80.3863 28.8508 79.6892 28.2273 79.0418 27.489C78.1759 26.5016 77.6176 25.5566 77.367 24.654C77.1273 23.7465 77.2372 22.9122 77.6968 22.151C78.1594 21.3761 79.023 20.7071 80.2876 20.1441C81.5413 19.5858 82.753 19.3309 83.9224 19.3791C85.0841 19.4185 86.1832 19.7207 87.2198 20.2858C88.2594 20.8371 89.2121 21.6065 90.078 22.5939ZM81.6313 26.3546C82.2163 27.0218 82.8222 27.5498 83.4488 27.9387C84.0754 28.3276 84.718 28.5548 85.3766 28.6203C86.0351 28.6857 86.7049 28.5669 87.3858 28.2637C88.0883 27.9509 88.5373 27.5717 88.7326 27.1261C88.9387 26.6756 88.9284 26.1669 88.7017 25.5999C88.4858 25.0282 88.0853 24.4087 87.5002 23.7416C86.6187 22.7364 85.7014 22.0502 84.7482 21.6831C83.795 21.3159 82.7995 21.3633 81.7619 21.8253C81.0702 22.1332 80.6213 22.5125 80.4152 22.9629C80.2091 23.4134 80.2139 23.9245 80.4298 24.4962C80.6457 25.068 81.0462 25.6875 81.6313 26.3546Z" fill="white"/>
<g opacity="0.4" filter="url(#filter1_d_1_507)">
<path d="M35.6336 4.89204L33.602 2.57551L34.0363 2.38216L36.0679 4.69868L35.6336 4.89204ZM36.9642 4.29961L34.8659 2.96531L35.3042 2.77017L37.0412 3.91562L37.1055 3.88698L36.4221 2.27246L36.8604 2.07732L37.6237 4.006L36.9642 4.29961ZM39.1331 3.39838C38.991 3.46164 38.8463 3.49848 38.6988 3.50889C38.5541 3.51812 38.4144 3.49904 38.2796 3.45166C38.1476 3.40309 38.0332 3.32364 37.9364 3.21333C37.8378 3.10082 37.7887 2.99383 37.7892 2.89238C37.7904 2.78753 37.8309 2.69129 37.9106 2.60366C37.9929 2.51483 38.1065 2.43819 38.2513 2.37374L38.8544 2.10519L38.7616 1.9993C38.6784 1.90443 38.5768 1.84383 38.4568 1.8175C38.3368 1.79117 38.2044 1.81023 38.0596 1.87468C37.9175 1.93794 37.8331 2.01386 37.8065 2.10243C37.7798 2.19101 37.7931 2.28479 37.8463 2.38378L37.3703 2.45306C37.3251 2.35049 37.3064 2.24839 37.3142 2.14676C37.3227 2.04173 37.3666 1.94089 37.4459 1.84425C37.5251 1.74761 37.6478 1.66229 37.814 1.58829C38.0714 1.47371 38.3212 1.43765 38.5634 1.48011C38.8057 1.52257 39.0139 1.64308 39.188 1.84164L39.7772 2.51343C39.8352 2.57962 39.9017 2.596 39.9768 2.56258L40.1457 2.48739L40.3953 2.77199L40.0857 2.90985C39.9918 2.95162 39.898 2.96578 39.8042 2.95232C39.7104 2.93887 39.6335 2.89795 39.5735 2.82955L39.5648 2.81963L39.5045 2.84648C39.5121 2.88912 39.5138 2.94205 39.5096 3.00528C39.5054 3.0685 39.4763 3.13515 39.4222 3.20525C39.3662 3.27313 39.2698 3.33751 39.1331 3.39838ZM38.9467 3.09023C39.1129 3.01624 39.2131 2.91795 39.2472 2.79538C39.2795 2.6706 39.2356 2.53982 39.1156 2.40303L39.0866 2.36994L38.5076 2.62774C38.3977 2.67668 38.3266 2.73592 38.2944 2.80547C38.2603 2.87282 38.2761 2.94399 38.3419 3.019C38.4077 3.09402 38.4948 3.13807 38.6032 3.15116C38.7116 3.16425 38.8261 3.14394 38.9467 3.09023ZM40.6371 2.66431L39.2064 1.03281L39.6125 0.851993L39.8273 1.09688L39.8916 1.06824C39.8711 0.985342 39.8839 0.89373 39.9301 0.793401C39.9763 0.693072 40.0946 0.600537 40.2849 0.515796C40.435 0.448958 40.5919 0.417455 40.7556 0.421289C40.9219 0.423928 41.0831 0.461072 41.2391 0.532719C41.3932 0.60216 41.5321 0.707479 41.6559 0.848677L42.515 1.82823L42.1008 2.01264L41.265 1.05955C41.1412 0.918355 41.0073 0.83376 40.8635 0.805767C40.7177 0.775568 40.5698 0.793887 40.4197 0.860725C40.2481 0.937111 40.1507 1.04491 40.1274 1.18412C40.1068 1.32213 40.1739 1.47939 40.3287 1.65589L41.0513 2.47991L40.6371 2.66431ZM43.8022 1.25513L41.7707 -1.06139L42.2049 -1.25475L44.2365 1.06177L43.8022 1.25513ZM45.1328 0.662703L43.0345 -0.671599L43.4728 -0.866742L45.2098 0.278713L45.2741 0.250068L44.5907 -1.36445L45.029 -1.55959L45.7923 0.369093L45.1328 0.662703ZM47.3017 -0.238527C47.1596 -0.17527 47.0149 -0.138433 46.8675 -0.128016C46.7227 -0.118793 46.583 -0.137871 46.4483 -0.18525C46.3162 -0.233822 46.2018 -0.313264 46.1051 -0.423574C46.0064 -0.536091 45.9573 -0.643074 45.9578 -0.744524C45.959 -0.849374 45.9995 -0.945616 46.0792 -1.03325C46.1616 -1.12208 46.2751 -1.19872 46.4199 -1.26317L47.0231 -1.53171L46.9302 -1.63761C46.847 -1.73248 46.7454 -1.79308 46.6254 -1.81941C46.5054 -1.84574 46.373 -1.82668 46.2282 -1.76222C46.0862 -1.69897 46.0018 -1.62305 45.9751 -1.53448C45.9484 -1.4459 45.9617 -1.35212 46.0149 -1.25313L45.539 -1.18385C45.4937 -1.28642 45.475 -1.38852 45.4828 -1.49015C45.4913 -1.59518 45.5352 -1.69602 45.6145 -1.79266C45.6937 -1.8893 45.8165 -1.97462 45.9827 -2.04862C46.24 -2.1632 46.4898 -2.19926 46.7321 -2.1568C46.9743 -2.11434 47.1825 -1.99383 47.3566 -1.79527L47.9458 -1.12348C48.0038 -1.05729 48.0704 -1.04091 48.1454 -1.07433L48.3143 -1.14952L48.5639 -0.864917L48.2543 -0.727063C48.1605 -0.68529 48.0666 -0.67113 47.9728 -0.684584C47.879 -0.698038 47.8022 -0.738961 47.7422 -0.807354L47.7335 -0.817281L47.6731 -0.790427C47.6807 -0.747785 47.6824 -0.694854 47.6782 -0.631633C47.674 -0.568413 47.6449 -0.501756 47.5908 -0.431663C47.5348 -0.363776 47.4384 -0.299398 47.3017 -0.238527ZM47.1153 -0.546674C47.2815 -0.620673 47.3817 -0.718959 47.4159 -0.841531C47.4481 -0.966309 47.4042 -1.09709 47.2843 -1.23388L47.2552 -1.26697L46.6762 -1.00916C46.5663 -0.960229 46.4952 -0.900987 46.463 -0.831437C46.4289 -0.764093 46.4447 -0.692915 46.5105 -0.617904C46.5763 -0.542893 46.6634 -0.498841 46.7718 -0.485749C46.8802 -0.472656 46.9947 -0.492965 47.1153 -0.546674ZM48.8058 -0.972601L47.375 -2.60409L47.7811 -2.78492L47.9959 -2.54003L48.0602 -2.56867C48.0397 -2.65157 48.0525 -2.74318 48.0987 -2.84351C48.1449 -2.94384 48.2632 -3.03637 48.4535 -3.12111C48.6037 -3.18795 48.7605 -3.21945 48.9242 -3.21562C49.0905 -3.21298 49.2517 -3.17584 49.4077 -3.10419C49.5618 -3.03475 49.7007 -2.92943 49.8246 -2.78823L50.6836 -1.80867L50.2694 -1.62427L49.4336 -2.57736C49.3098 -2.71855 49.176 -2.80315 49.0321 -2.83114C48.8864 -2.86134 48.7384 -2.84302 48.5883 -2.77618C48.4167 -2.6998 48.3193 -2.592 48.296 -2.45279C48.2754 -2.31478 48.3425 -2.15752 48.4973 -1.98102L49.2199 -1.157L48.8058 -0.972601ZM52.0883 -2.36968C51.89 -2.28135 51.684 -2.23567 51.4705 -2.23264C51.2577 -2.233 51.0519 -2.27636 50.8532 -2.36273C50.6545 -2.4491 50.4796 -2.57832 50.3287 -2.75041L50.2852 -2.80005C50.1343 -2.97213 50.0489 -3.13964 50.029 -3.30257C50.0072 -3.46771 50.0427 -3.6185 50.1355 -3.75492C50.231 -3.89254 50.3779 -4.00551 50.5763 -4.09383C50.7747 -4.18215 50.9816 -4.22673 51.197 -4.22756C51.4125 -4.22839 51.6196 -4.18563 51.8184 -4.09926C52.0152 -4.0151 52.189 -3.88698 52.34 -3.71489L52.3835 -3.66525C52.5344 -3.49317 52.6208 -3.32456 52.6426 -3.15941C52.6644 -2.99427 52.6276 -2.84289 52.5321 -2.70528C52.4346 -2.56987 52.2867 -2.458 52.0883 -2.36968ZM51.8213 -2.67413C52.0036 -2.75529 52.1095 -2.86837 52.1389 -3.01337C52.169 -3.16176 52.1096 -3.3209 51.9606 -3.49078L51.9345 -3.52056C51.7855 -3.69044 51.6131 -3.79775 51.4173 -3.84249C51.2196 -3.88943 51.0283 -3.87173 50.8433 -3.78937C50.6637 -3.70941 50.5588 -3.59523 50.5287 -3.44683C50.4993 -3.30183 50.5591 -3.1444 50.7081 -2.97452L50.7342 -2.94474C50.8832 -2.77486 51.0565 -2.66645 51.2542 -2.6195C51.4527 -2.57596 51.6417 -2.59417 51.8213 -2.67413ZM53.8196 -3.20492L51.7213 -4.53922L52.1596 -4.73436L53.8966 -3.58891L53.961 -3.61755L53.2775 -5.23207L53.7158 -5.42721L54.4791 -3.49853L53.8196 -3.20492Z" fill="white"/>
</g>
<line y1="-0.317385" x2="44.4339" y2="-0.317385" transform="matrix(0.913545 -0.406737 0.659347 0.751838 -17.6555 30.4086)" stroke="#369E7D" stroke-width="0.634771"/>
<line y1="-0.317385" x2="44.4339" y2="-0.317385" transform="matrix(0.913545 -0.406737 0.659347 0.751838 -17.6555 30.4086)" stroke="#369E7D" stroke-width="0.634771"/>
<line y1="-0.317385" x2="44.4339" y2="-0.317385" transform="matrix(0.913545 -0.406737 0.659347 0.751838 -18.4927 29.4541)" stroke="#369E7D" stroke-width="0.634771"/>
<line y1="-0.317385" x2="44.4339" y2="-0.317385" transform="matrix(0.913545 -0.406737 0.659347 0.751838 -18.4927 29.4541)" stroke="#369E7D" stroke-width="0.634771"/>
<line y1="-0.317385" x2="44.4339" y2="-0.317385" transform="matrix(0.913545 -0.406737 0.659347 0.751838 -18.0742 29.9314)" stroke="white" stroke-width="0.634771"/>
</g>
<rect x="0.203626" y="0.0446768" width="89.8451" height="54.632" rx="4.01325" transform="matrix(0.913545 -0.406737 0.659347 0.751838 -28.3966 23.8937)" stroke="url(#paint0_radial_1_507)" stroke-width="0.25892"/>
<rect x="0.203626" y="0.0446768" width="89.8451" height="54.632" rx="4.01325" transform="matrix(0.913545 -0.406737 0.659347 0.751838 -28.3966 23.8937)" stroke="url(#paint1_radial_1_507)" stroke-width="0.25892"/>
<rect x="0.203626" y="0.0446768" width="89.8451" height="54.632" rx="4.01325" transform="matrix(0.913545 -0.406737 0.659347 0.751838 -28.3966 23.8937)" stroke="url(#paint2_radial_1_507)" stroke-width="0.25892"/>
</g>
<defs>
<filter id="filter0_d_1_507" x="-56.2075" y="-26.7602" width="166.203" height="125.614" filterUnits="userSpaceOnUse" color-interpolation-filters="sRGB">
<feFlood flood-opacity="0" result="BackgroundImageFix"/>
<feColorMatrix in="SourceAlpha" type="matrix" values="0 0 0 0 0 0 0 0 0 0 0 0 0 0 0 0 0 0 127 0" result="hardAlpha"/>
<feOffset dx="-3.97468" dy="9.9367"/>
<feGaussianBlur stdDeviation="11.924"/>
<feComposite in2="hardAlpha" operator="out"/>
<feColorMatrix type="matrix" values="0 0 0 0 0 0 0 0 0 0 0 0 0 0 0 0 0 0 0.3 0"/>
<feBlend mode="normal" in2="BackgroundImageFix" result="effect1_dropShadow_1_507"/>
<feBlend mode="normal" in="SourceGraphic" in2="effect1_dropShadow_1_507" result="shape"/>
</filter>
<filter id="filter1_d_1_507" x="33.3431" y="-6.11224" width="22.103" height="11.8274" filterUnits="userSpaceOnUse" color-interpolation-filters="sRGB">
<feFlood flood-opacity="0" result="BackgroundImageFix"/>
<feColorMatrix in="SourceAlpha" type="matrix" values="0 0 0 0 0 0 0 0 0 0 0 0 0 0 0 0 0 0 127 0" result="hardAlpha"/>
<feOffset dy="0.517839"/>
<feGaussianBlur stdDeviation="0.12946"/>
<feComposite in2="hardAlpha" operator="out"/>
<feColorMatrix type="matrix" values="0 0 0 0 0 0 0 0 0 0 0 0 0 0 0 0 0 0 0.25 0"/>
<feBlend mode="normal" in2="BackgroundImageFix" result="effect1_dropShadow_1_507"/>
<feBlend mode="normal" in="SourceGraphic" in2="effect1_dropShadow_1_507" result="shape"/>
</filter>
<radialGradient id="paint0_radial_1_507" cx="0" cy="0" r="1" gradientUnits="userSpaceOnUse" gradientTransform="translate(109.293 20.7437) rotate(174.425) scale(147.814 37.4579)">
<stop stop-color="white"/>
<stop offset="1" stop-color="white" stop-opacity="0"/>
</radialGradient>
<radialGradient id="paint1_radial_1_507" cx="0" cy="0" r="1" gradientUnits="userSpaceOnUse" gradientTransform="translate(-8.06487 -31.9133) rotate(30.6396) scale(86.6241 52.334)">
<stop stop-color="white"/>
<stop offset="1" stop-color="white" stop-opacity="0"/>
</radialGradient>
<radialGradient id="paint2_radial_1_507" cx="0" cy="0" r="1" gradientUnits="userSpaceOnUse" gradientTransform="translate(-36.1528 74.1453) rotate(-5.33944) scale(110.886 27.9789)">
<stop stop-color="white"/>
<stop offset="1" stop-color="white" stop-opacity="0"/>
</radialGradient>
<clipPath id="clip0_1_507">
<rect width="90.104" height="54.8909" rx="4.14271" transform="matrix(0.913545 -0.406737 0.659347 0.751838 -28.3848 23.7998)" fill="white"/>
</clipPath>
</defs>
</svg>
