<svg width="121" height="72" viewBox="0 0 121 72" fill="none" xmlns="http://www.w3.org/2000/svg">
<g filter="url(#filter0_d_1_673)">
<g clip-path="url(#clip0_1_673)">
<rect width="90.104" height="54.8909" rx="4.14271" transform="matrix(0.913545 -0.406737 0.659347 0.751838 -17.3848 23.7998)" fill="#5B82FF"/>
<path d="M-1.51212 30.621C-1.87861 30.7842 -2.25022 30.8753 -2.62696 30.8944C-3.0037 30.9135 -3.36031 30.8599 -3.69679 30.7337C-4.03198 30.6016 -4.32011 30.398 -4.56119 30.1232L-4.65159 30.0201L-3.76088 29.6235L-3.69057 29.7037C-3.50306 29.9175 -3.26193 30.049 -2.96716 30.0983C-2.67574 30.1437 -2.38158 30.1003 -2.08467 29.9681C-1.78313 29.8339 -1.60307 29.6714 -1.5445 29.4808C-1.48129 29.2881 -1.52836 29.102 -1.68573 28.9225L-1.73596 28.8653C-1.8431 28.7431 -1.96727 28.6604 -2.10846 28.6171C-2.24965 28.5737 -2.39794 28.5628 -2.55334 28.5842C-2.71207 28.6018 -2.87031 28.6457 -3.02804 28.7159L-4.00226 29.1497L-4.7054 28.3479L-3.73542 26.9605L-3.81578 26.8688L-6.27916 27.9656L-6.85171 27.3127L-3.4002 25.776L-2.54639 26.7496L-3.45216 28.0447L-3.3718 28.1364L-3.11433 28.0217C-2.89629 27.9247 -2.6534 27.8669 -2.38566 27.8486C-2.11329 27.8282 -1.84286 27.8644 -1.5744 27.9572C-1.30928 28.0462 -1.07125 28.211 -0.860311 28.4515L-0.800042 28.5203C-0.572359 28.7799 -0.449682 29.0411 -0.432012 29.304C-0.417689 29.5631 -0.502826 29.808 -0.687422 30.0388C-0.870728 30.2638 -1.14563 30.4578 -1.51212 30.621ZM4.32067 27.9126L3.60748 27.0994L1.21369 28.1652L0.470374 27.3176L0.0951902 24.2198L1.69569 23.5072L3.92564 26.0499L4.73285 25.6905L5.30541 26.3434L4.4982 26.7028L5.21138 27.516L4.32067 27.9126ZM1.4901 27.1343L3.03493 26.4465L1.21682 24.3734L1.09156 24.4291L1.40974 27.0427L1.4901 27.1343ZM8.07034 26.3546C7.68993 26.524 7.312 26.6153 6.93655 26.6285C6.56574 26.6396 6.21738 26.5771 5.89147 26.4408C5.56556 26.3046 5.28542 26.1028 5.05104 25.8356L5.00081 25.7783L5.90545 25.3755L5.95065 25.4271C6.11806 25.618 6.33858 25.748 6.61221 25.8173C6.88713 25.8807 7.17768 25.8443 7.48387 25.708C7.79005 25.5716 7.96573 25.4005 8.01091 25.1946C8.05738 24.9828 7.98519 24.7681 7.79434 24.5504L7.74411 24.4932C7.55661 24.2794 7.32411 24.1467 7.04661 24.095C6.77374 24.0413 6.51438 24.0692 6.2685 24.1787C6.13397 24.2386 6.03602 24.3034 5.97466 24.3732C5.91331 24.443 5.87488 24.5132 5.85939 24.5838C5.8439 24.6544 5.83769 24.7209 5.84076 24.7832L4.76216 25.2634L2.79337 23.0185L6.11963 21.5375L6.70223 22.2018L4.26668 23.2862L5.12552 24.2655L5.25077 24.2098C5.25364 24.1395 5.27441 24.0639 5.3131 23.9829C5.35178 23.902 5.42036 23.8184 5.51883 23.7321C5.6173 23.6458 5.75236 23.5644 5.92401 23.488C6.21164 23.3599 6.51728 23.2928 6.84093 23.2868C7.16458 23.2807 7.48137 23.344 7.79131 23.4768C8.10253 23.6037 8.38203 23.8084 8.62981 24.0909L8.69008 24.1596C8.93785 24.4421 9.07791 24.7195 9.11027 24.9918C9.14726 25.262 9.07913 25.5153 8.90587 25.7517C8.72926 25.9843 8.45075 26.1853 8.07034 26.3546ZM12.3604 24.3331L11.6472 23.5199L9.25344 24.5856L8.51012 23.7381L8.13494 20.6402L9.73544 19.9277L11.9654 22.4704L12.7726 22.111L13.3452 22.7639L12.5379 23.1233L13.2511 23.9365L12.3604 24.3331ZM9.52984 23.5548L11.0747 22.867L9.25656 20.7938L9.1313 20.8496L9.44948 23.4632L9.52984 23.5548ZM17.7447 22.0473C17.1695 22.3034 16.594 22.3791 16.0184 22.2744C15.4395 22.1659 14.9173 21.8463 14.4519 21.3156L13.5679 20.3076C13.1159 19.7922 12.9467 19.3234 13.0602 18.9013C13.1704 18.4753 13.5132 18.1342 14.0884 17.8781C14.6683 17.6199 15.2488 17.5499 15.8298 17.6682C16.4121 17.7805 16.9293 18.0944 17.3813 18.6098L18.2652 19.6178C18.7306 20.1485 18.9049 20.623 18.788 21.0413C18.6724 21.4538 18.3246 21.7891 17.7447 22.0473ZM17.1722 21.3944C17.5201 21.2395 17.7066 21.0477 17.7317 20.8188C17.7614 20.5879 17.6491 20.3274 17.3946 20.0372L16.4604 18.972C16.2026 18.6781 15.9156 18.4979 15.5995 18.4316C15.2846 18.3595 14.9718 18.3926 14.661 18.531C14.3409 18.6735 14.159 18.8633 14.1153 19.1004C14.0763 19.3354 14.1807 19.5942 14.4285 19.8767L15.3627 20.9419C15.6272 21.2435 15.9099 21.4335 16.2108 21.5119C16.5131 21.5844 16.8335 21.5452 17.1722 21.3944ZM21.9787 20.1622C21.4034 20.4184 20.828 20.4941 20.2524 20.3894C19.6734 20.2808 19.1512 19.9612 18.6858 19.4305L17.8018 18.4226C17.3498 17.9072 17.1806 17.4384 17.2942 17.0162C17.4044 16.5902 17.7471 16.2491 18.3223 15.993C18.9022 15.7348 19.4827 15.6649 20.0637 15.7831C20.646 15.8954 21.1632 16.2093 21.6152 16.7248L22.4992 17.7327C22.9646 18.2634 23.1388 18.7379 23.0219 19.1563C22.9063 19.5687 22.5586 19.9041 21.9787 20.1622ZM21.4061 19.5094C21.754 19.3545 21.9406 19.1626 21.9656 18.9338C21.9954 18.7029 21.883 18.4423 21.6285 18.1522L20.6944 17.087C20.4365 16.793 20.1496 16.6128 19.8334 16.5466C19.5186 16.4744 19.2057 16.5075 18.8949 16.6459C18.5748 16.7884 18.3929 16.9782 18.3493 17.2153C18.3103 17.4503 18.4147 17.7091 18.6624 17.9916L19.5966 19.0569C19.8611 19.3585 20.1438 19.5485 20.4448 19.6268C20.747 19.6993 21.0674 19.6602 21.4061 19.5094ZM26.2126 18.2772C25.6373 18.5333 25.0619 18.609 24.4863 18.5043C23.9073 18.3958 23.3851 18.0761 22.9197 17.5454L22.0358 16.5375C21.5838 16.0221 21.4145 15.5533 21.5281 15.1311C21.6383 14.7051 21.981 14.3641 22.5563 14.108C23.1362 13.8498 23.7166 13.7798 24.2977 13.898C24.88 14.0104 25.3971 14.3243 25.8491 14.8397L26.7331 15.8476C27.1985 16.3783 27.3728 16.8528 27.2559 17.2712C27.1402 17.6837 26.7925 18.019 26.2126 18.2772ZM25.64 17.6243C25.988 17.4694 26.1745 17.2775 26.1996 17.0487C26.2293 16.8178 26.1169 16.5573 25.8625 16.2671L24.9283 15.2019C24.6705 14.9079 24.3835 14.7278 24.0674 14.6615C23.7525 14.5893 23.4397 14.6224 23.1288 14.7608C22.8087 14.9033 22.6269 15.0932 22.5832 15.3302C22.5442 15.5653 22.6486 15.824 22.8964 16.1066L23.8305 17.1718C24.095 17.4734 24.3778 17.6634 24.6787 17.7418C24.9809 17.8142 25.3014 17.7751 25.64 17.6243ZM29.1814 15.745L28.6692 15.1608L29.3094 14.8758L29.0381 14.5665L28.3979 14.8516L27.8857 14.2674L28.5259 13.9824L26.999 12.2414L29.031 11.3367C29.3325 11.2025 29.6371 11.1305 29.9448 11.121C30.2571 11.1093 30.5536 11.1605 30.8341 11.2745C31.1114 11.3846 31.3504 11.5542 31.5513 11.7833L31.6216 11.8635C31.8225 12.0926 31.9294 12.3211 31.9422 12.5489C31.9596 12.7748 31.8925 12.9851 31.7409 13.18C31.586 13.3711 31.3624 13.5317 31.0701 13.6619L29.9567 14.1576L30.2279 14.4668L31.7727 13.779L32.285 14.3632L30.7402 15.051L31.4333 15.8413L30.5147 16.2503L29.8216 15.4599L29.1814 15.745ZM29.4444 13.5734L30.4673 13.118C30.6761 13.025 30.8069 12.9057 30.8598 12.7601C30.9093 12.6106 30.8671 12.4595 30.7332 12.3068L30.683 12.2495C30.5457 12.093 30.3736 11.9998 30.1667 11.9698C29.9644 11.9377 29.7566 11.9692 29.5432 12.0642L28.5203 12.5197L29.4444 13.5734Z" fill="white"/>
<path d="M16.2268 67.0138L7.87201 57.487L17.0321 53.4087L25.3869 62.9355L22.9388 64.0254L16.0584 56.1798L11.7945 58.0783L18.6749 65.9238L16.2268 67.0138ZM33.9753 52.4698C34.6228 53.2081 35.0982 53.9303 35.4017 54.6362C35.7082 55.3284 35.8256 55.9935 35.7539 56.6315C35.693 57.2647 35.4127 57.8533 34.913 58.3973C34.4241 58.9366 33.7094 59.4156 32.7691 59.8342C31.8288 60.2529 30.9059 60.503 30.0005 60.5845C29.0982 60.6523 28.2328 60.5738 27.4044 60.3489C26.579 60.1104 25.7876 59.7392 25.0302 59.2354C24.2835 58.7267 23.5865 58.1033 22.939 57.365C22.0731 56.3776 21.5149 55.4326 21.2643 54.5299C21.0245 53.6225 21.1344 52.7881 21.594 52.0269C22.0566 51.252 22.9202 50.5831 24.1848 50.02C25.4386 49.4618 26.6502 49.2068 27.8197 49.2551C28.9813 49.2945 30.0805 49.5967 31.117 50.1618C32.1566 50.7131 33.1094 51.4825 33.9753 52.4698ZM25.5285 56.2306C26.1136 56.8977 26.7194 57.4258 27.346 57.8147C27.9726 58.2036 28.6152 58.4308 29.2738 58.4962C29.9323 58.5617 30.6021 58.4429 31.283 58.1397C31.9856 57.8269 32.4345 57.4477 32.6298 57.002C32.8359 56.5516 32.8256 56.0429 32.5989 55.4759C32.383 54.9042 31.9825 54.2847 31.3975 53.6176C30.516 52.6124 29.5986 51.9262 28.6454 51.559C27.6922 51.1919 26.6968 51.2393 25.6592 51.7012C24.9674 52.0092 24.5185 52.3884 24.3124 52.8389C24.1063 53.2893 24.1112 53.8004 24.3271 54.3722C24.543 54.944 24.9434 55.5634 25.5285 56.2306ZM38.8708 43.6855L40.3335 45.3533L35.4697 47.5188L42.3618 55.3778L39.9137 56.4677L31.5589 46.941L38.8708 43.6855ZM54.2981 50.0634L51.4658 48.1704L47.2505 50.0472L48.3967 52.6908L45.754 53.8674L41.4497 42.4816L44.4491 41.1462L56.9408 48.8868L54.2981 50.0634ZM46.6106 44.8962C46.4239 44.7691 46.1859 44.6091 45.8967 44.4163C45.6074 44.2235 45.3142 44.0263 45.0171 43.8246C44.72 43.623 44.4664 43.4452 44.2564 43.2914C44.3583 43.4933 44.4777 43.7494 44.6144 44.0596C44.7542 44.356 44.8862 44.6436 45.0103 44.9223C45.1375 45.1872 45.2224 45.3782 45.2649 45.4953L46.3805 48.0784L49.3961 46.7358L46.6106 44.8962ZM72.3173 42.0407L57.7583 48.5228L49.4036 38.996L51.8517 37.906L58.7321 45.7516L62.3313 44.1491L55.4509 36.3036L57.9152 35.2064L64.7956 43.052L68.3948 41.4495L61.5144 33.6039L63.9625 32.5139L72.3173 42.0407ZM81.2525 38.0625L74.5891 41.0292L66.2343 31.5025L72.8977 28.5357L74.3486 30.1902L70.1334 32.067L71.9705 34.1618L75.8939 32.415L77.3449 34.0695L73.4214 35.8163L75.5745 38.2714L79.7898 36.3947L81.2525 38.0625ZM92.4971 33.0561L90.0489 34.1461L86.4449 30.0365L81.8567 32.0793L85.4608 36.1889L83.0127 37.2788L74.6579 27.752L77.106 26.6621L80.3824 30.3981L84.9705 28.3553L81.6942 24.6193L84.1423 23.5293L92.4971 33.0561ZM101.078 22.5939C101.725 23.3322 102.201 24.0543 102.504 24.7602C102.811 25.4524 102.928 26.1175 102.856 26.7555C102.796 27.3887 102.515 27.9773 102.015 28.5214C101.527 29.0606 100.812 29.5396 99.8716 29.9583C98.9313 30.3769 98.0084 30.627 97.1031 30.7085C96.2007 30.7763 95.3353 30.6978 94.5069 30.473C93.6815 30.2344 92.8901 29.8632 92.1327 29.3594C91.386 28.8508 90.689 28.2273 90.0415 27.489C89.1756 26.5016 88.6174 25.5566 88.3668 24.654C88.127 23.7465 88.237 22.9122 88.6965 22.151C89.1591 21.3761 90.0227 20.7071 91.2873 20.1441C92.5411 19.5858 93.7527 19.3309 94.9222 19.3791C96.0839 19.4185 97.183 19.7207 98.2196 20.2858C99.2592 20.8371 100.212 21.6065 101.078 22.5939ZM92.631 26.3546C93.2161 27.0218 93.8219 27.5498 94.4485 27.9387C95.0752 28.3276 95.7177 28.5548 96.3763 28.6203C97.0349 28.6857 97.7046 28.5669 98.3855 28.2637C99.0881 27.9509 99.537 27.5717 99.7323 27.1261C99.9384 26.6756 99.9281 26.1669 99.7014 25.5999C99.4855 25.0282 99.0851 24.4087 98.5 23.7416C97.6185 22.7364 96.7011 22.0502 95.7479 21.6831C94.7947 21.3159 93.7993 21.3633 92.7617 21.8253C92.07 22.1332 91.621 22.5125 91.4149 22.9629C91.2088 23.4134 91.2137 23.9245 91.4296 24.4962C91.6455 25.068 92.046 25.6875 92.631 26.3546Z" fill="white"/>
<g opacity="0.4" filter="url(#filter1_d_1_673)">
<path d="M46.6336 4.89204L44.602 2.57552L45.0363 2.38216L47.0679 4.69869L46.6336 4.89204ZM47.9642 4.29962L45.8659 2.96531L46.3042 2.77017L48.0412 3.91563L48.1055 3.88698L47.4221 2.27247L47.8604 2.07732L48.6237 4.00601L47.9642 4.29962ZM50.1331 3.39838C49.991 3.46164 49.8463 3.49848 49.6988 3.5089C49.5541 3.51812 49.4144 3.49904 49.2796 3.45166C49.1476 3.40309 49.0332 3.32365 48.9364 3.21334C48.8378 3.10082 48.7887 2.99384 48.7892 2.89239C48.7904 2.78754 48.8309 2.6913 48.9106 2.60366C48.9929 2.51483 49.1065 2.4382 49.2513 2.37374L49.8544 2.1052L49.7616 1.9993C49.6784 1.90443 49.5768 1.84383 49.4568 1.81751C49.3368 1.79118 49.2044 1.81024 49.0596 1.87469C48.9175 1.93795 48.8331 2.01386 48.8065 2.10244C48.7798 2.19101 48.7931 2.28479 48.8463 2.38378L48.3703 2.45306C48.3251 2.35049 48.3064 2.24839 48.3142 2.14676C48.3227 2.04173 48.3666 1.94089 48.4459 1.84425C48.5251 1.74762 48.6478 1.6623 48.814 1.5883C49.0714 1.47372 49.3212 1.43766 49.5634 1.48012C49.8057 1.52258 50.0139 1.64309 50.188 1.84164L50.7772 2.51344C50.8352 2.57962 50.9017 2.59601 50.9768 2.56259L51.1457 2.48739L51.3953 2.772L51.0857 2.90985C50.9918 2.95162 50.898 2.96578 50.8042 2.95233C50.7104 2.93887 50.6335 2.89795 50.5735 2.82956L50.5648 2.81963L50.5045 2.84649C50.5121 2.88913 50.5138 2.94206 50.5096 3.00528C50.5054 3.0685 50.4763 3.13516 50.4222 3.20525C50.3662 3.27314 50.2698 3.33751 50.1331 3.39838ZM49.9467 3.09024C50.1129 3.01624 50.2131 2.91795 50.2472 2.79538C50.2795 2.6706 50.2356 2.53982 50.1156 2.40304L50.0866 2.36994L49.5076 2.62775C49.3977 2.67668 49.3266 2.73593 49.2944 2.80548C49.2603 2.87282 49.2761 2.944 49.3419 3.01901C49.4077 3.09402 49.4948 3.13807 49.6032 3.15116C49.7116 3.16426 49.8261 3.14395 49.9467 3.09024ZM51.6371 2.66431L50.2064 1.03282L50.6125 0.851997L50.8273 1.09689L50.8916 1.06824C50.8711 0.985346 50.8839 0.893734 50.9301 0.793405C50.9763 0.693076 51.0946 0.600541 51.2849 0.5158C51.435 0.448962 51.5919 0.417459 51.7556 0.421292C51.9219 0.423932 52.0831 0.461075 52.2391 0.532723C52.3932 0.602164 52.5321 0.707483 52.6559 0.848681L53.515 1.82824L53.1008 2.01264L52.265 1.05956C52.1412 0.918359 52.0073 0.833764 51.8635 0.805771C51.7177 0.775571 51.5698 0.793891 51.4197 0.860729C51.2481 0.937115 51.1507 1.04491 51.1274 1.18412C51.1068 1.32214 51.1739 1.47939 51.3287 1.65589L52.0513 2.47991L51.6371 2.66431ZM54.8022 1.25513L52.7707 -1.06139L53.2049 -1.25474L55.2365 1.06178L54.8022 1.25513ZM56.1328 0.662707L54.0345 -0.671595L54.4728 -0.866738L56.2098 0.278717L56.2741 0.250072L55.5907 -1.36444L56.029 -1.55959L56.7923 0.369097L56.1328 0.662707ZM58.3017 -0.238524C58.1596 -0.175266 58.0149 -0.138429 57.8675 -0.128012C57.7227 -0.118789 57.583 -0.137867 57.4483 -0.185246C57.3162 -0.233818 57.2018 -0.31326 57.1051 -0.42357C57.0064 -0.536087 56.9573 -0.643071 56.9578 -0.74452C56.959 -0.84937 56.9995 -0.945612 57.0792 -1.03325C57.1616 -1.12207 57.2751 -1.19871 57.4199 -1.26316L58.0231 -1.53171L57.9302 -1.63761C57.847 -1.73248 57.7454 -1.79307 57.6254 -1.8194C57.5054 -1.84573 57.373 -1.82667 57.2282 -1.76222C57.0862 -1.69896 57.0018 -1.62305 56.9751 -1.53447C56.9484 -1.4459 56.9617 -1.35212 57.0149 -1.25313L56.539 -1.18385C56.4937 -1.28642 56.475 -1.38852 56.4828 -1.49015C56.4913 -1.59518 56.5352 -1.69601 56.6145 -1.79265C56.6937 -1.88929 56.8165 -1.97461 56.9827 -2.04861C57.24 -2.16319 57.4898 -2.19925 57.7321 -2.15679C57.9743 -2.11433 58.1825 -1.99382 58.3566 -1.79526L58.9458 -1.12347C59.0038 -1.05729 59.0704 -1.0409 59.1454 -1.07432L59.3143 -1.14951L59.5639 -0.864913L59.2543 -0.72706C59.1605 -0.685286 59.0666 -0.671126 58.9728 -0.68458C58.879 -0.698034 58.8022 -0.738957 58.7422 -0.80735L58.7335 -0.817278L58.6731 -0.790423C58.6807 -0.747782 58.6824 -0.69485 58.6782 -0.63163C58.674 -0.568409 58.6449 -0.501752 58.5908 -0.431659C58.5348 -0.363773 58.4384 -0.299394 58.3017 -0.238524ZM58.1153 -0.54667C58.2815 -0.620669 58.3817 -0.718955 58.4159 -0.841527C58.4481 -0.966305 58.4042 -1.09709 58.2843 -1.23387L58.2552 -1.26696L57.6762 -1.00916C57.5663 -0.960226 57.4952 -0.900983 57.463 -0.831433C57.4289 -0.764089 57.4447 -0.692911 57.5105 -0.6179C57.5763 -0.542889 57.6634 -0.498837 57.7718 -0.485745C57.8802 -0.472653 57.9947 -0.492961 58.1153 -0.54667ZM59.8058 -0.972597L58.375 -2.60409L58.7811 -2.78491L58.9959 -2.54002L59.0602 -2.56867C59.0397 -2.65156 59.0525 -2.74318 59.0987 -2.8435C59.1449 -2.94383 59.2632 -3.03637 59.4535 -3.12111C59.6037 -3.18795 59.7605 -3.21945 59.9242 -3.21562C60.0905 -3.21298 60.2517 -3.17583 60.4077 -3.10419C60.5618 -3.03474 60.7007 -2.92943 60.8246 -2.78823L61.6836 -1.80867L61.2694 -1.62427L60.4336 -2.57735C60.3098 -2.71855 60.176 -2.80314 60.0321 -2.83114C59.8864 -2.86134 59.7384 -2.84302 59.5883 -2.77618C59.4167 -2.69979 59.3193 -2.592 59.296 -2.45279C59.2754 -2.31477 59.3425 -2.15752 59.4973 -1.98102L60.2199 -1.157L59.8058 -0.972597ZM63.0883 -2.36967C62.89 -2.28135 62.684 -2.23567 62.4705 -2.23263C62.2577 -2.23299 62.0519 -2.27636 61.8532 -2.36272C61.6545 -2.44909 61.4796 -2.57832 61.3287 -2.7504L61.2852 -2.80004C61.1343 -2.97213 61.0489 -3.13964 61.029 -3.30257C61.0072 -3.46771 61.0427 -3.61849 61.1355 -3.75492C61.231 -3.89254 61.3779 -4.00551 61.5763 -4.09383C61.7747 -4.18215 61.9816 -4.22673 62.197 -4.22756C62.4125 -4.22839 62.6196 -4.18562 62.8184 -4.09926C63.0152 -4.0151 63.189 -3.88697 63.34 -3.71489L63.3835 -3.66525C63.5344 -3.49316 63.6208 -3.32455 63.6426 -3.15941C63.6644 -2.99427 63.6276 -2.84289 63.5321 -2.70527C63.4346 -2.56986 63.2867 -2.45799 63.0883 -2.36967ZM62.8213 -2.67413C63.0036 -2.75529 63.1095 -2.86837 63.1389 -3.01336C63.169 -3.16176 63.1096 -3.3209 62.9606 -3.49077L62.9345 -3.52056C62.7855 -3.69044 62.6131 -3.79775 62.4173 -3.84248C62.2196 -3.88943 62.0283 -3.87172 61.8433 -3.78937C61.6637 -3.7094 61.5588 -3.59522 61.5287 -3.44683C61.4993 -3.30183 61.5591 -3.14439 61.7081 -2.97452L61.7342 -2.94473C61.8832 -2.77485 62.0565 -2.66644 62.2542 -2.6195C62.4527 -2.57595 62.6417 -2.59416 62.8213 -2.67413ZM64.8196 -3.20491L62.7213 -4.53921L63.1596 -4.73436L64.8966 -3.5889L64.961 -3.61755L64.2775 -5.23206L64.7158 -5.42721L65.4791 -3.49852L64.8196 -3.20491Z" fill="white"/>
</g>
<line y1="-0.317385" x2="44.4339" y2="-0.317385" transform="matrix(0.913545 -0.406737 0.659347 0.751838 -6.65576 30.4086)" stroke="#369E7D" stroke-width="0.634771"/>
<line y1="-0.317385" x2="44.4339" y2="-0.317385" transform="matrix(0.913545 -0.406737 0.659347 0.751838 -6.65576 30.4086)" stroke="#369E7D" stroke-width="0.634771"/>
<line y1="-0.317385" x2="44.4339" y2="-0.317385" transform="matrix(0.913545 -0.406737 0.659347 0.751838 -7.49268 29.4541)" stroke="#369E7D" stroke-width="0.634771"/>
<line y1="-0.317385" x2="44.4339" y2="-0.317385" transform="matrix(0.913545 -0.406737 0.659347 0.751838 -7.49268 29.4541)" stroke="#369E7D" stroke-width="0.634771"/>
<line y1="-0.317385" x2="44.4339" y2="-0.317385" transform="matrix(0.913545 -0.406737 0.659347 0.751838 -7.07422 29.9314)" stroke="white" stroke-width="0.634771"/>
</g>
<rect x="0.203626" y="0.0446768" width="89.8451" height="54.632" rx="4.01325" transform="matrix(0.913545 -0.406737 0.659347 0.751838 -17.3966 23.8937)" stroke="url(#paint0_radial_1_673)" stroke-width="0.25892"/>
<rect x="0.203626" y="0.0446768" width="89.8451" height="54.632" rx="4.01325" transform="matrix(0.913545 -0.406737 0.659347 0.751838 -17.3966 23.8937)" stroke="url(#paint1_radial_1_673)" stroke-width="0.25892"/>
<rect x="0.203626" y="0.0446768" width="89.8451" height="54.632" rx="4.01325" transform="matrix(0.913545 -0.406737 0.659347 0.751838 -17.3966 23.8937)" stroke="url(#paint2_radial_1_673)" stroke-width="0.25892"/>
</g>
<defs>
<filter id="filter0_d_1_673" x="-45.2075" y="-26.7602" width="166.203" height="125.614" filterUnits="userSpaceOnUse" color-interpolation-filters="sRGB">
<feFlood flood-opacity="0" result="BackgroundImageFix"/>
<feColorMatrix in="SourceAlpha" type="matrix" values="0 0 0 0 0 0 0 0 0 0 0 0 0 0 0 0 0 0 127 0" result="hardAlpha"/>
<feOffset dx="-3.97468" dy="9.9367"/>
<feGaussianBlur stdDeviation="11.924"/>
<feComposite in2="hardAlpha" operator="out"/>
<feColorMatrix type="matrix" values="0 0 0 0 0 0 0 0 0 0 0 0 0 0 0 0 0 0 0.3 0"/>
<feBlend mode="normal" in2="BackgroundImageFix" result="effect1_dropShadow_1_673"/>
<feBlend mode="normal" in="SourceGraphic" in2="effect1_dropShadow_1_673" result="shape"/>
</filter>
<filter id="filter1_d_1_673" x="44.3431" y="-6.11224" width="22.1028" height="11.8274" filterUnits="userSpaceOnUse" color-interpolation-filters="sRGB">
<feFlood flood-opacity="0" result="BackgroundImageFix"/>
<feColorMatrix in="SourceAlpha" type="matrix" values="0 0 0 0 0 0 0 0 0 0 0 0 0 0 0 0 0 0 127 0" result="hardAlpha"/>
<feOffset dy="0.517839"/>
<feGaussianBlur stdDeviation="0.12946"/>
<feComposite in2="hardAlpha" operator="out"/>
<feColorMatrix type="matrix" values="0 0 0 0 0 0 0 0 0 0 0 0 0 0 0 0 0 0 0.25 0"/>
<feBlend mode="normal" in2="BackgroundImageFix" result="effect1_dropShadow_1_673"/>
<feBlend mode="normal" in="SourceGraphic" in2="effect1_dropShadow_1_673" result="shape"/>
</filter>
<radialGradient id="paint0_radial_1_673" cx="0" cy="0" r="1" gradientUnits="userSpaceOnUse" gradientTransform="translate(109.293 20.7437) rotate(174.425) scale(147.814 37.4579)">
<stop stop-color="white"/>
<stop offset="1" stop-color="white" stop-opacity="0"/>
</radialGradient>
<radialGradient id="paint1_radial_1_673" cx="0" cy="0" r="1" gradientUnits="userSpaceOnUse" gradientTransform="translate(-8.06487 -31.9133) rotate(30.6396) scale(86.6241 52.334)">
<stop stop-color="white"/>
<stop offset="1" stop-color="white" stop-opacity="0"/>
</radialGradient>
<radialGradient id="paint2_radial_1_673" cx="0" cy="0" r="1" gradientUnits="userSpaceOnUse" gradientTransform="translate(-36.1528 74.1453) rotate(-5.33944) scale(110.886 27.9789)">
<stop stop-color="white"/>
<stop offset="1" stop-color="white" stop-opacity="0"/>
</radialGradient>
<clipPath id="clip0_1_673">
<rect width="90.104" height="54.8909" rx="4.14271" transform="matrix(0.913545 -0.406737 0.659347 0.751838 -17.3848 23.7998)" fill="white"/>
</clipPath>
</defs>
</svg>
