<svg width="14" height="14" viewBox="0 0 14 14" fill="none" xmlns="http://www.w3.org/2000/svg">
<path d="M7.00001 0.333344C3.32668 0.333344 0.333344 3.32668 0.333344 7.00001C0.333344 10.6733 3.32668 13.6667 7.00001 13.6667C10.6733 13.6667 13.6667 10.6733 13.6667 7.00001C13.6667 3.32668 10.6733 0.333344 7.00001 0.333344ZM9.90001 9.38001C9.80668 9.54001 9.64001 9.62668 9.46668 9.62668C9.38001 9.62668 9.29334 9.60668 9.21334 9.55334L7.14668 8.32001C6.63334 8.01334 6.25334 7.34001 6.25334 6.74668V4.01334C6.25334 3.74001 6.48001 3.51334 6.75334 3.51334C7.02668 3.51334 7.25334 3.74001 7.25334 4.01334V6.74668C7.25334 6.98668 7.45334 7.34001 7.66001 7.46001L9.72668 8.69334C9.96668 8.83334 10.0467 9.14001 9.90001 9.38001Z" fill="#F24C41"/>
</svg>
